Patient4_TMGait_0pt2_02_right_11_EMG.mot
version=1
nRows=26
nColumns=33
inDegrees=no
endheader
time	1LAddLong	2LGlutMax	3LGlutMed	4LIliopsoas	5LSemiMemb	6LBicFemLong	7LRecFem	8LVastMed	9LVastLat	10LGasMed	11LTibAnt	12lTibPost	13LPeroneusLong	14LSol	15LExtDigLong	16LFlexDigLong	17RAddLong	18RGlutMax	19RGlutMed	20RIliopsoas	21RSemiMemb	22RBicFemLong	23RRecFem	24RVastMed	25RVastLat	26RGasMed	27RTibAnt	28RTibPost	29RPeroneusLong	30RSol	31RExtDigLong	32RFlexDigLong
26.72	0.001831	-0.032196	-0.14938	0.015106	-0.005798	-0.005646	0.002747	0.005646	-0.10132	0.012512	-0.034027	0.065765	-0.76965	0.1506	0.11261	0.031586	-0.010986	-0.051727	0.2153	0.095215	0.02594	-0.005188	-0.13382	0.052795	0.020905	-0.024872	-0.1564	-0.002899	0.14008	-0.001068	-0.001373	-0.006714
26.721	-0.005646	-0.012665	-0.10452	0.006561	-0.000153	-0.018768	0.050812	-0.014801	-0.060883	0.094147	-0.014191	-0.12863	-0.33234	-0.23697	-0.060425	0.077972	0.027618	0.001221	0.37659	0.1091	0.016327	-0.001831	-0.13565	0.017548	0.030518	-0.023193	-0.087738	-0.005035	0.16129	-0.037537	-0.010986	-0.010834
26.722	-0.007172	-0.053711	-0.12405	0.014648	-0.007935	-0.027008	0.027008	-0.020599	-0.017548	0.30228	-0.010071	-0.17303	0.20996	-0.2626	-0.018311	-0.075836	0.014496	-0.016327	-0.084686	0.25818	0.018463	-0.005035	-0.11627	0.009918	0.010223	-0.034485	-0.098114	-0.001984	0.088196	-0.049896	-0.00061	-0.017395
26.723	0.000458	-0.05661	0.056915	0.019073	0.007172	-0.050201	0.031586	0.005646	0.059814	0.39246	-0.016174	0.10056	0.16174	-0.12543	0.12848	-0.12192	0.012817	0.005341	-0.29129	0.41367	0.015259	-0.024261	-0.16342	-0.062714	0.019836	-0.025177	0.03479	-0.002747	-0.004425	-0.054321	-0.004425	-0.016632
26.724	0.00473	-0.043945	-0.074615	0.002594	0.007172	0.000916	-0.009613	0.021362	0.11917	0.3363	-0.023041	0.076141	0.089874	-0.40787	0.048828	-0.040131	-0.002899	-0.000916	-0.12192	0.23972	0.006714	-0.027771	-0.14374	0.005646	0.021362	-0.023804	0.13886	-0.002136	-0.053864	-0.074768	-0.005188	-0.012512
26.725	0.009918	-0.000305	-0.057373	0.023193	0.009308	0.080872	-0.1091	0.007477	0.18906	0.1413	-0.027618	0.039063	-0.025177	-0.36133	-0.021362	0.013733	0.002899	-0.057526	-0.26855	0.071564	0.006714	-0.030212	-0.087891	-0.010529	0.014038	-0.02121	-0.24475	0.003052	0.00824	-0.054169	-0.005493	-0.010834
26.726	0.010223	0.053406	0.007324	0.016174	0.012512	0.038147	-0.16678	0.001984	0.32791	0.070801	-0.005951	0.01709	-0.30777	-0.016785	-0.008698	0.014343	0.062561	-0.009155	-0.42618	-0.077515	-0.00885	-0.020599	-0.11948	-0.003815	0.018005	-0.009613	0.018463	0.001373	0.10559	-0.075378	-0.001526	-0.002136
26.727	0.014648	0.049438	-0.015717	-0.011292	0.010986	-0.03891	-0.096436	-0.010071	0.27863	-0.045929	-0.014038	-0.00473	-0.003204	-0.3685	-0.059204	0.04776	0.065765	-0.040283	-0.41458	-0.18967	-0.005341	-0.019226	-0.13947	-0.022736	-0.011902	-0.005951	0.36529	0.000153	0.072632	-0.18158	-0.005493	-0.003662
26.728	0.007172	0.040588	-0.046082	-0.011139	0.004272	0.028687	0.006256	-0.019684	-0.12268	-0.22964	-0.018921	0.00885	-0.15656	-0.20737	-0.062866	-0.000458	0.039825	-0.027466	-0.32318	-0.25131	-0.016174	-0.015564	-0.070801	-0.040894	-0.010529	-0.008392	0.06424	0.00351	-0.046844	-0.22873	-0.001373	-0.007935
26.729	-0.005493	0.016022	0.026398	-0.003815	0.003357	0.18784	0.098419	-0.016022	-0.32455	-0.15518	-0.008545	-0.000763	0.06424	0.28153	-0.027924	-0.002136	0.012817	0.010986	0.23071	-0.27939	-0.015259	-0.056458	-0.042877	-0.031433	-0.010376	0.001831	0.15198	0.001068	0.020905	-0.22675	-0.00351	-0.004425
26.73	-0.010681	-0.009766	-0.15915	0.013275	0.004425	0.25513	0.026855	0.01236	-0.32379	-0.093536	-0.007477	-0.002747	0.24368	0.2478	-0.005188	-0.011597	-0.014954	-0.03479	-0.57587	-0.2385	-0.019226	-0.013428	-0.070343	-0.012054	-0.016022	0.006256	-0.2626	-0.004425	0.19073	-0.12207	0.003967	-0.000916
26.731	-0.009308	0.017548	-0.074615	0.020905	-0.003204	0.24017	-0.020294	0.03067	-0.22507	0.007629	-0.041046	-0.003357	0.032043	0.12024	-0.027313	-0.002289	-0.045624	-0.026703	-0.39505	-0.1741	-0.009155	-0.00946	-0.079803	-0.016327	0.001678	0.000763	-0.10468	0.001068	0.21805	-0.061188	-0.000458	0.001526
26.732	-0.015259	0.080109	-0.09613	0.005188	-0.034943	0.32883	-0.084839	0.020294	-0.15533	-0.068817	-0.053101	0.002747	0.3537	0.084076	0.023346	-0.005341	-0.082092	-0.01709	0.007935	-0.058289	-0.013733	-0.016937	-0.087128	0.014801	0.005798	-0.000916	-0.20828	0.000305	0.053253	0.025177	-0.005951	-0.006256
26.733	-0.014801	0.10147	-0.070801	-0.011139	-0.053711	0.289	-0.14053	0.015106	-0.082397	-0.15198	-0.02655	0.001984	0.18799	0.14999	0.049438	0.002289	-0.10452	-0.045319	-0.12116	0.011292	-0.000305	-0.010376	-0.06485	0.012207	0.016174	-0.011597	-0.19409	-0.002747	-0.055389	0.094757	-0.005493	-0.009918
26.734	-0.0177	0.13962	0.21118	-0.026855	-0.064545	-0.10452	-0.14923	-0.003662	-0.031738	-0.093231	0.016327	-0.006866	-0.5928	0.12558	0.075378	0.006409	-0.073547	-0.028992	-0.55389	0.019989	-0.013428	0.007935	-0.055084	-0.00412	0.015869	-0.019226	0.15503	-0.000916	-0.061951	0.19714	-0.002747	-0.00824
26.735	-0.022583	0.10941	0.13657	-0.003815	-0.017853	-0.084686	-0.019073	-0.016327	0.077209	-0.018921	0.058899	-0.003204	-1.093	-0.16586	-0.037231	0.006714	-0.039978	-0.022125	-0.55176	0.096893	-0.011444	0.006866	-0.050354	0.007019	0.004883	-0.009918	0.031433	-0.003815	0.055084	0.25375	-0.004425	-0.003967
26.736	-0.027466	0.079193	-0.031433	0.024872	0.010223	-0.1767	0.068665	-0.014343	0.14816	-0.036163	0.041962	0.015411	0.11749	-0.099945	-0.022736	-0.014343	0.001221	-0.000305	-0.65948	0.10544	-0.003052	-0.006866	-0.025177	-0.0177	0.002747	-0.009613	-0.43991	-0.001984	0.065765	0.25192	-0.005798	-0.00885
26.737	-0.012665	0.096893	0.091248	0.007629	0.045776	-0.40237	0.13214	-0.010986	0.15015	0.025177	0.033264	0.007324	0.9639	0.20767	0.015717	-0.003967	0.042725	0.008392	-0.36514	0.033417	-0.01297	-0.011139	-0.028534	-0.026093	0.006714	-0.012207	-0.67001	0.000305	0.061035	0.19745	-0.004425	-0.002289
26.738	0.006256	0.13138	0.21255	-0.00061	0.04715	-0.3125	0.16159	-0.00824	0.12512	0.28671	0.046692	0.002899	0.24414	0.33402	-0.039673	-0.004272	0.041046	0.040131	-0.19867	0.063171	-0.015717	0.018616	-0.084381	-0.032501	-0.000305	-0.004578	-0.50171	-0.001984	0.10834	0.17746	-0.003204	-0.005341
26.739	0.002747	0.19806	0.2446	0.023193	0.014496	-0.18814	0.12466	-0.004578	0.22492	0.30853	0.026245	-0.001984	-0.52216	0.30685	-0.005341	-0.012054	0.033264	0.10269	-0.45441	0.11917	-0.019989	0.008392	-0.063324	-0.015411	0.023041	-0.001221	-0.26642	0.000458	0.10376	0.22949	-0.000153	0
26.74	0.006866	0.088806	0.094604	0.019073	-0.036926	-0.082397	0.049896	0.006714	0.31448	0.1358	-0.013428	-0.007324	-0.39337	0.22781	0.068817	0.000916	-0.011902	0.043335	-0.42419	0.17242	-0.027771	-0.011902	-0.05722	-0.051727	0.014191	0	-0.076599	-0.00351	0.089264	0.17593	-0.003204	0.000153
26.741	-0.006409	0.037079	0.16419	0.005798	-0.045319	-0.029449	-0.040894	0.014648	0.36667	0.094604	-0.011444	-0.004425	0.16037	0.27725	0.084839	-0.003815	0.001984	-0.009918	-0.62836	0.12329	-0.033722	-0.014648	-0.075073	-0.028381	0.021515	-0.000916	-0.006256	0.000763	0.066223	0.086517	-0.001984	-0.009155
26.742	0.015411	0.03418	0.28839	-0.01358	-0.093079	-0.15778	-0.10468	0.017853	0.41901	-0.014343	-0.005188	0.003662	0.11841	-0.11078	-0.046234	-0.007782	0.040894	0.044708	-0.32333	-0.10178	-0.041504	-0.018921	-0.086517	-0.086365	0.032654	-0.001678	0.12817	0.000153	0.06958	0.12375	-0.002441	-0.000458
26.743	0.025177	0.025177	0.11292	0.000305	0.016632	-0.1738	-0.058441	-0.006561	0.33432	-0.34912	-0.001373	-0.009766	0.1767	-0.047607	-0.00473	-0.001678	0.039368	0.076447	-0.1442	-0.19165	-0.041199	-0.019226	-0.034332	-0.075531	0.016785	-0.010986	-0.002594	-0.003052	0.046692	0.13397	-0.002441	0.000763
26.744	0.035858	0.09079	0.084381	0.023499	0.098114	-0.081787	-0.093689	-0.010986	-0.099182	-0.22354	-0.019836	-0.011139	0.057373	0.021515	0.053101	-0.002441	0.016937	0.017853	-0.7727	0.014191	-0.036316	-0.031738	-0.022736	-0.036926	0.017853	-0.018616	0.001526	-0.000153	0.039825	0.060577	-0.00412	0.002594
26.745	0.033417	0.085907	0.032806	0.028687	0.090332	0.038605	-0.20966	-0.005341	-0.36514	-0.25146	-0.018921	-0.062714	0.059509	-0.18997	-0.028076	-0.00351	-0.011597	-0.020599	-0.75485	-0.050964	-0.036469	-0.028381	0.005493	-0.062714	0.018921	-0.016479	-0.13626	0.002441	0.043793	0.047302	-0.00351	-0.001373
